<svg width="83" height="15" viewBox="0 0 83 15" fill="none" xmlns="http://www.w3.org/2000/svg">
    <path d="M12.851 0.966374C12.75 1.51445 12.649 2.16349 12.6058 2.40868L12.5192 2.88464H14.4663H16.4135L16.5721 1.68753C16.6731 1.03849 16.774 0.389451 16.8173 0.24522C16.8894 0.0144512 16.7308 2.81557e-05 14.9567 2.81557e-05H13.0096L12.851 0.966374Z" fill="#ECECEC"/>
    <path d="M80.0337 0.129843C79.3414 0.346189 79.0096 0.605805 78.8077 1.08177C78.0433 2.94234 79.8894 4.64427 81.5048 3.56254C82.0962 3.15869 82.3558 2.69715 82.3558 1.976C82.3558 0.692343 81.2019 -0.216311 80.0337 0.129843ZM81.4039 1.02407C81.7933 1.48561 81.9087 2.32215 81.6346 2.74042C81.5048 2.92792 81.4471 2.89907 81.2164 2.59619C80.9712 2.2933 80.9712 2.22119 81.1442 2.12023C81.2596 2.06254 81.3462 1.81734 81.3462 1.58657C81.3462 1.08177 81.0144 0.86542 80.2789 0.86542H79.7596V1.94715C79.7596 2.79811 79.8029 3.02888 79.9616 3.02888C80.0914 3.02888 80.1923 2.8558 80.2212 2.55292L80.2789 2.09138L80.5529 2.55292C80.7116 2.82696 80.9712 3.02888 81.1298 3.0433C81.3606 3.0433 81.3173 3.101 80.9567 3.27407C79.6731 3.90869 78.5625 2.04811 79.601 0.995228C80.1923 0.403882 80.8991 0.418305 81.4039 1.02407ZM80.6827 1.38465C81.0433 1.51446 80.9567 1.7308 80.5529 1.7308C80.3221 1.7308 80.1923 1.64427 80.1923 1.51446C80.1923 1.28369 80.3221 1.24042 80.6827 1.38465Z" fill="#ECECEC"/>
    <path d="M35.8702 6.23078C35.3365 9.59136 34.8029 12.8654 34.7019 13.5144L34.5144 14.7115H36.6202H38.7404L39.0721 12.5481L39.4038 10.3846H40.875C44.2932 10.3846 46.0384 9.57693 47.1779 7.47116C47.6538 6.59136 47.6682 6.51924 47.6682 4.90386C47.6682 3.41828 47.625 3.15866 47.2932 2.45193C46.8606 1.54328 46.3269 0.966355 45.5048 0.51924C44.9567 0.230779 44.6971 0.216355 40.8894 0.173086L36.8365 0.129817L35.8702 6.23078ZM43.1394 4.45674C43.6298 4.94712 43.6731 5.37982 43.2692 6.01443C42.9375 6.56251 42.3029 6.77886 40.9471 6.77886H40.0096L40.2259 5.40866L40.4423 4.03847H41.5817C42.649 4.03847 42.7356 4.06732 43.1394 4.45674Z" fill="#ECECEC"/>
    <path d="M49.1394 7.28366C47.1779 11.2067 45.5769 14.4952 45.5769 14.5673C45.5769 14.6539 46.3846 14.7115 47.7259 14.7115H49.8606L50.3077 13.7019L50.7548 12.6923H52.9038H55.0673L55.1682 13.7019L55.2692 14.7115H57.3461C59.1779 14.7115 59.4231 14.6827 59.4231 14.4808C59.4231 14.351 58.875 11.1346 58.1971 7.34136C57.5192 3.54809 56.9711 0.375009 56.9711 0.288471C56.9711 0.201932 56.1923 0.14424 54.8365 0.14424H52.7163L49.1394 7.28366ZM54.4471 8.46636L54.5481 9.37501H53.4519C52.8461 9.37501 52.3558 9.33174 52.3558 9.27405C52.3558 9.21636 52.7308 8.33655 53.1923 7.31251L54.0144 5.45193L54.1875 6.51924C54.274 7.09616 54.3894 7.97597 54.4471 8.46636Z" fill="#ECECEC"/>
    <path d="M59.7981 0.533663C59.6827 1.11059 59.2789 3.72116 59.2789 3.89424C59.2789 3.98078 59.9568 4.03847 61.0818 4.03847C62.1923 4.03847 62.8846 4.09616 62.8846 4.1827C62.8846 4.26924 62.5241 6.57693 62.0914 9.30289C61.6587 12.0433 61.2981 14.3798 61.2981 14.4952C61.2981 14.6827 61.6443 14.7115 63.3894 14.7115C65.4375 14.7115 65.4808 14.7115 65.5529 14.3942C65.5962 14.2067 65.9568 11.9567 66.3462 9.37501C66.75 6.79328 67.1106 4.51443 67.1539 4.28366L67.2404 3.89424H69.0721H70.9183L71.1491 2.26443C71.2933 1.38462 71.3943 0.533663 71.3943 0.389432C71.3943 0.158663 71.0193 0.14424 65.6394 0.14424H59.8846L59.7981 0.533663Z" fill="#ECECEC"/>
    <path d="M73.3414 0.461557C73.2692 0.822134 71.1058 14.4664 71.1058 14.625C71.1058 14.6683 72.0577 14.6971 73.226 14.6827L75.3606 14.6394L76.4712 7.71636C77.0769 3.90867 77.5817 0.649057 77.5817 0.461557C77.5962 0.144249 77.5817 0.144249 75.5048 0.144249C73.4567 0.144249 73.4135 0.144249 73.3414 0.461557Z" fill="#ECECEC"/>
    <path d="M24.3029 3.82212C24.2308 3.85097 23.9135 3.90866 23.625 3.96635C23.3221 4.00962 22.774 4.28366 22.4135 4.5577L21.7356 5.07693L21.8221 4.5577L21.9086 4.03847H20.0481C18.2308 4.03847 18.1731 4.05289 18.101 4.35578C18.0721 4.54328 17.7115 6.76443 17.3077 9.30289C16.9183 11.8414 16.5433 14.0914 16.5 14.3077L16.4135 14.7115H18.375C19.4567 14.7115 20.3365 14.6683 20.3365 14.625C20.3365 14.2356 21.3894 8.35097 21.5192 8.03366C21.851 7.1827 23.0048 6.89424 23.4519 7.57212C23.6683 7.90386 23.6538 8.1202 23.1635 11.0192C22.875 12.7212 22.6442 14.25 22.6442 14.4087C22.6442 14.6971 22.7163 14.7115 24.5192 14.7115C26.3365 14.7115 26.3942 14.6971 26.4663 14.3798C26.5096 14.2067 26.7692 12.7067 27.0433 11.0337C27.6058 7.58655 27.7356 7.31251 28.6731 7.24039C29.1635 7.19712 29.2933 7.25482 29.4952 7.5577C29.7548 7.96155 29.7404 8.1202 29.0481 12.274C28.8606 13.4423 28.7019 14.4664 28.7019 14.5529C28.7019 14.6539 29.3077 14.7115 30.6202 14.7115H32.524L33.0721 11.2789C33.375 9.40386 33.6058 7.44232 33.6058 6.92309C33.5913 4.87501 32.5385 3.85097 30.4183 3.85097C29.3221 3.85097 28.4423 4.19712 27.7788 4.88943L27.3606 5.32212L27.0577 4.86059C26.8846 4.60097 26.524 4.29809 26.25 4.15385C25.7452 3.92309 24.5769 3.72116 24.3029 3.82212Z" fill="#ECECEC"/>
    <path d="M3.53365 4.02405C2.22115 4.35578 1.13942 5.3077 0.850961 6.37501C0.764423 6.72116 0.721154 7.39905 0.764423 7.90386C0.879808 9.47597 1.6875 10.1683 3.87981 10.5865C5.61058 10.9039 6.17308 11.3942 5.53846 12.0289C4.96154 12.6202 3.96635 12.375 3.62019 11.5817L3.40385 11.1058H1.70192H0V11.5673C0 12.9952 0.951923 14.2212 2.40865 14.6683C3.67788 15.0433 6.01442 15 7.11058 14.5673C8.82692 13.9183 9.57692 12.851 9.57692 11.1058C9.57692 9.89424 9.36058 9.34616 8.65385 8.7404C8.16346 8.33655 6.83654 7.87501 5.65385 7.71636C4.80288 7.60097 4.41346 7.2404 4.60096 6.72116C4.875 6.01443 6.10096 6.07213 6.46154 6.82213L6.64904 7.21155H8.30769H9.95192V6.60578C9.95192 5.66828 9.40385 4.86059 8.40865 4.3702C7.64423 3.9952 7.42788 3.96636 5.76923 3.93751C4.77404 3.92309 3.77885 3.96636 3.53365 4.02405Z" fill="#ECECEC"/>
    <path d="M12.3317 4.35578C12.2885 4.54328 11.9279 6.76443 11.5385 9.30289C11.1346 11.8414 10.774 14.0914 10.7308 14.3077L10.6442 14.7115H12.6058C13.6875 14.7115 14.5673 14.6539 14.5673 14.5817C14.5673 14.524 14.9279 12.2452 15.3606 9.51924C15.7933 6.79328 16.1538 4.45674 16.1538 4.31251C16.1538 4.05289 16.0096 4.03847 14.2788 4.03847C12.4615 4.03847 12.4038 4.05289 12.3317 4.35578Z" fill="#ECECEC"/>
</svg>
