<svg width="53" height="53" viewBox="0 0 53 53" fill="none" xmlns="http://www.w3.org/2000/svg">
    <circle opacity="0.1" cx="26.5" cy="26.5" r="26.5" fill="#F7B731"/>
    <defs>
        <linearGradient id="paint0_linear_687_790" x1="16.0767" y1="28.9624" x2="43" y2="28.9624" gradientUnits="userSpaceOnUse">
            <stop stop-color="#E52D27"/>
            <stop offset="1" stop-color="#B31217"/>
        </linearGradient>
    </defs>
    <path fill-rule="evenodd" clip-rule="evenodd" d="M29.3101 33.065L33.1153 29.2684C34.1663 28.2198 34.4268 26.6179 33.7622 25.2916L33.5466 24.8613C32.8819 23.535 33.1424 21.9331 34.1934 20.8845L38.9116 16.1771C39.2487 15.8407 39.7953 15.8407 40.1324 16.1771C40.198 16.2426 40.2526 16.3181 40.2941 16.4009L42.2001 20.2043C43.6582 23.1139 43.0867 26.628 40.7812 28.9282L30.4242 39.2616C27.9147 41.7655 24.2027 42.6397 20.8358 41.52L16.6672 40.1336C16.2149 39.9832 15.9704 39.4954 16.1212 39.0442C16.1636 38.9173 16.235 38.8021 16.3297 38.7075L20.9072 34.1405C21.9581 33.092 23.5637 32.832 24.893 33.4952L25.3242 33.7103C26.6536 34.3735 28.2591 34.1135 29.3101 33.065Z" fill="url(#paint0_linear_687_790)"/>
    <path d="M31.1542 17.9463L30.8238 21.3756C28.271 21.1308 25.7358 22.0147 23.8878 23.8585C22.0458 25.6962 21.1595 28.2152 21.397 30.7544L17.9589 31.0745C17.627 27.525 18.8697 23.993 21.4462 21.4224C24.0311 18.8434 27.5858 17.604 31.1542 17.9463ZM31.7585 11.0821L31.439 14.5125C26.8617 14.0881 22.3178 15.6805 19.0045 18.9863C15.6958 22.2875 14.0994 26.8131 14.5188 31.3742L11.0802 31.6889C10.5681 26.1192 12.521 20.5829 16.5629 16.5502C20.6103 12.512 26.169 10.5639 31.7585 11.0821Z" fill="#F7B731"/>

</svg>