<svg width="53" height="53" viewBox="0 0 53 53" fill="none" xmlns="http://www.w3.org/2000/svg">
    <circle opacity="0.1" cx="26.5" cy="26.5" r="26.5" fill="#F7B731"/>
    <defs>
        <linearGradient id="paint0_linear_687_795" x1="14.5555" y1="22.5883" x2="39.4444" y2="22.5883" gradientUnits="userSpaceOnUse">
            <stop stop-color="#E52D27"/>
            <stop offset="1" stop-color="#B31217"/>
        </linearGradient>
        <linearGradient id="paint1_linear_687_795" x1="11" y1="30.951" x2="43" y2="30.951" gradientUnits="userSpaceOnUse">
            <stop stop-color="#E52D27"/>
            <stop offset="1" stop-color="#B31217"/>
        </linearGradient>
    </defs>
    <path fill-rule="evenodd" clip-rule="evenodd" d="M16.3333 12H37.6667C38.6485 12 39.4444 12.7901 39.4444 13.7647V31.4118C39.4444 32.3865 38.6485 33.1765 37.6667 33.1765H16.3333C15.3515 33.1765 14.5555 32.3865 14.5555 31.4118V13.7647C14.5555 12.7901 15.3515 12 16.3333 12Z" fill="url(#paint0_linear_687_795)"/>
    <path fill-rule="evenodd" clip-rule="evenodd" d="M37.6667 12H16.3333C15.3515 12 14.5555 12.7901 14.5555 13.7647V31.4118C14.5555 32.3865 15.3515 33.1765 16.3333 33.1765H37.6667C38.6485 33.1765 39.4444 32.3865 39.4444 31.4118V13.7647C39.4444 12.7901 38.6485 12 37.6667 12ZM29.6667 16H24.3333C23.597 16 23 16.608 23 17.3581V25.321C23 25.4908 23.0625 25.6546 23.1752 25.7798C23.424 26.0562 23.8457 26.0749 24.1171 25.8215L26.5495 23.5505C26.8044 23.3125 27.1956 23.3125 27.4505 23.5505L29.8829 25.8215C30.0058 25.9363 30.1665 26 30.3333 26C30.7015 26 31 25.696 31 25.321V17.3581C31 16.608 30.403 16 29.6667 16Z" fill="#F7B731"/>
    <path fill-rule="evenodd" clip-rule="evenodd" d="M12.4093 20.0691L27 30.5294L41.5907 20.0691C41.9887 19.7838 42.5443 19.8728 42.8317 20.2678C42.9411 20.4182 43 20.5989 43 20.7844V38.4706C43 40.4198 41.4081 42 39.4444 42H14.5556C12.5919 42 11 40.4198 11 38.4706V20.7844C11 20.2971 11.398 19.9021 11.8889 19.9021C12.0757 19.9021 12.2578 19.9605 12.4093 20.0691Z" fill="url(#paint1_linear_687_795)"/>

</svg>