<svg width="53" height="53" viewBox="0 0 53 53" fill="none" xmlns="http://www.w3.org/2000/svg">
    <circle opacity="0.1" cx="26.5" cy="26.5" r="26.5" fill="#F7B731"/>
    <defs>
        <linearGradient id="paint0_linear_687_796" x1="13" y1="26" x2="41" y2="26" gradientUnits="userSpaceOnUse">
            <stop stop-color="#E52D27"/>
            <stop offset="1" stop-color="#B31217"/>
        </linearGradient>
    </defs>
    <path fill-rule="evenodd" clip-rule="evenodd" d="M15.3333 12H38.6667C39.9553 12 41 13.0447 41 14.3333V37.6667C41 38.9553 39.9553 40 38.6667 40H15.3333C14.0447 40 13 38.9553 13 37.6667V14.3333C13 13.0447 14.0447 12 15.3333 12Z" fill="#F7B731"/>
    <path fill-rule="evenodd" clip-rule="evenodd" d="M15.3333 12H38.6667C39.9553 12 41 13.0447 41 14.3333V37.6667C41 38.9553 39.9553 40 38.6667 40H15.3333C14.0447 40 13 38.9553 13 37.6667V14.3333C13 13.0447 14.0447 12 15.3333 12ZM20.7778 15.1111C19.9187 15.1111 19.2222 15.8076 19.2222 16.6667C19.2222 17.5258 19.9187 18.2222 20.7778 18.2222H33.2222C34.0813 18.2222 34.7778 17.5258 34.7778 16.6667C34.7778 15.8076 34.0813 15.1111 33.2222 15.1111H20.7778Z" fill="url(#paint0_linear_687_796)"/>
    <path d="M24.7223 25.046L25.5042 25.5936C25.5751 25.6432 25.628 25.7144 25.6551 25.7965C25.7244 26.0069 25.6101 26.2336 25.3997 26.3029L22.6833 27.1984C22.6463 27.2105 22.6077 27.2173 22.5688 27.2184C22.3474 27.2245 22.1629 27.05 22.1568 26.8286L22.0779 23.9758C22.0756 23.8898 22.1009 23.8052 22.1503 23.7347C22.2774 23.5533 22.5274 23.5092 22.7089 23.6362L23.3557 24.0891C24.5077 23.079 25.9984 22.5 27.5834 22.5C31.1272 22.5 34 25.3728 34 28.9167C34 32.4605 31.1272 35.3333 27.5834 35.3333C24.0395 35.3333 21.1667 32.4605 21.1667 28.9167H22.7709C22.7709 31.5745 24.9255 33.7292 27.5834 33.7292C30.2412 33.7292 32.3959 31.5745 32.3959 28.9167C32.3959 26.2588 30.2412 24.1042 27.5834 24.1042C26.5314 24.1042 25.5362 24.4433 24.7223 25.046Z" fill="#F7B731"/>

</svg>