<svg width="53" height="53" viewBox="0 0 53 53" fill="none" xmlns="http://www.w3.org/2000/svg">
    <circle opacity="0.1" cx="26.5" cy="26.5" r="26.5" fill="#F7B731"/>
    <defs>
        <linearGradient id="paint0_linear_0_1" x1="12.6" y1="26.1026" x2="43" y2="26.1026" gradientUnits="userSpaceOnUse">
            <stop stop-color="#E52D27"/>
            <stop offset="1" stop-color="#B31217"/>
        </linearGradient>
    </defs>
    <path fill-rule="evenodd" clip-rule="evenodd" d="M14.2 31.6667L11 42L21.4 38.8205L14.2 31.6667Z" fill="#F7B731"/>
    <path fill-rule="evenodd" clip-rule="evenodd" d="M27.8 41.2051C19.4052 41.2051 12.6 34.4435 12.6 26.1026C12.6 17.7616 19.4052 11 27.8 11C36.1947 11 43 17.7616 43 26.1026C43 34.4435 36.1947 41.2051 27.8 41.2051Z" fill="#F7B731"/>
    <path fill-rule="evenodd" clip-rule="evenodd" d="M27.8 41.2051C19.4053 41.2051 12.6 34.4435 12.6 26.1026C12.6 17.7616 19.4053 11 27.8 11C36.1947 11 43 17.7616 43 26.1026C43 34.4435 36.1947 41.2051 27.8 41.2051ZM20.6 20.5385C19.7164 20.5385 19 21.2502 19 22.1282C19 23.0062 19.7164 23.7179 20.6 23.7179H35C35.8837 23.7179 36.6 23.0062 36.6 22.1282C36.6 21.2502 35.8837 20.5385 35 20.5385H20.6ZM20.6 26.8974C19.7164 26.8974 19 27.6092 19 28.4872C19 29.3652 19.7164 30.0769 20.6 30.0769H28.6C29.4837 30.0769 30.2 29.3652 30.2 28.4872C30.2 27.6092 29.4837 26.8974 28.6 26.8974H20.6Z" fill="url(#paint0_linear_0_1)"/>

</svg>