<svg width="53" height="53" viewBox="0 0 53 53" fill="none" xmlns="http://www.w3.org/2000/svg">
    <circle opacity="0.1" cx="26.5" cy="26.5" r="26.5" fill="#F7B731"/>
    <defs>
        <linearGradient id="paint0_linear_687_792" x1="11.9044" y1="26.2893" x2="43" y2="26.2893" gradientUnits="userSpaceOnUse">
            <stop stop-color="#E52D27"/>
            <stop offset="1" stop-color="#B31217"/>
        </linearGradient>
    </defs>
    <path d="M36.4067 16.396L32.6807 15.8559L18.3135 13.5168C17.4665 13.3799 16.5984 13.4421 15.7809 13.6983C14.9633 13.9545 14.22 14.3972 13.6122 14.99L11.1974 17.3462C11.1154 17.4264 11.056 17.5259 11.0248 17.6352C10.9936 17.7444 10.9918 17.8596 11.0195 17.9697C11.0471 18.0798 11.1034 18.1811 11.1827 18.2637C11.2621 18.3464 11.3619 18.4077 11.4726 18.4416L25.5902 22.7729L28.1607 23.5353" fill="#F7B731"/>
    <path d="M29 23.3257L30.6148 27.7197L35.0497 41.538C35.0844 41.6461 35.1471 41.7437 35.2316 41.8213C35.3162 41.8989 35.4198 41.9539 35.5324 41.981C35.645 42.008 35.7629 42.0062 35.8746 41.9757C35.9863 41.9453 36.0881 41.8872 36.1701 41.807L38.5835 39.4475C39.1902 38.8534 39.6434 38.1265 39.9055 37.327C40.1677 36.5276 40.2313 35.6786 40.091 34.8504L37.6972 20.7967L37.0948 16.896L29.0007 23.3257H29Z" fill="#F7B731"/>
    <path d="M11.9044 32.966L17.7187 35.4165C17.8815 35.4855 18.01 35.6144 18.0762 35.7753L20.4694 41.5785L23.1411 38.9341L22.6757 35.0097C22.6639 34.911 22.6751 34.811 22.7084 34.7171C22.7417 34.6232 22.7962 34.5379 22.868 34.4676L42.294 15.4791C42.6331 15.0888 42.8606 14.6177 42.9532 14.1136C43.0459 13.6096 43.0004 13.0905 42.8214 12.6092L42.7155 12.2234C42.6539 11.9976 42.5331 11.7914 42.3652 11.6251C42.1972 11.4588 41.9879 11.3382 41.7577 11.2751L41.3672 11.1702C40.8829 10.9967 40.3596 10.9548 39.8529 11.0493C39.3463 11.1437 38.8754 11.3708 38.4904 11.7064L19.0266 30.7067C18.9534 30.7782 18.8643 30.8323 18.7663 30.8648C18.6683 30.8973 18.564 30.9072 18.4614 30.894L14.5182 30.3822L11.9044 32.966Z" fill="url(#paint0_linear_687_792)"/>

</svg>